<svg version="1.0" xmlns="http://www.w3.org/2000/svg" width="1200" height="1200" viewBox="0 0 12000 12000"><path d="M5940 8192c-39-27-2846-2844-2859-2869-6-12-11-55-11-95v-74l419-630c296-443 431-637 457-656l37-28h4124l37 28c27 19 160 211 457 657l419 629v74c0 40-5 83-11 95-13 25-2820 2842-2859 2869-19 13-45 18-105 18s-86-5-105-18zm1350-2918l22-34H4785l630 1266 630 1266 612-1232c337-677 622-1247 633-1266zM5164 6490l-622-1250H3290l1247 1250c685 688 1247 1250 1248 1250 0 0-279-562-621-1250zm2389 0l1247-1250H7548l-622 1250c-342 688-621 1250-621 1250 1 0 563-562 1248-1250zM4423 5003c-11-16-54-102-98-193-113-237-326-663-329-659-2 2-134 201-295 442l-291 437h1031l-18-27zm2816 23c-15-13-1190-856-1194-856s-1179 843-1194 856c-2 2 535 4 1194 4s1196-2 1194-4zm1150-433c-161-241-293-440-295-442-3-4-216 422-329 659-44 91-87 177-98 193l-18 27h1031l-291-437zm-2889-296c168-121 316-228 329-238 23-19 3-19-811-19h-835l220 444 219 443 287-205c157-113 423-304 591-425zm1993-255c-226-1-601-1-832 0l-420 3 465 335c256 184 532 383 612 441l147 107 220-442 220-441-412-3z" fill="#666"/></svg>