<svg version="1.0" xmlns="http://www.w3.org/2000/svg" width="1200" height="1200" viewBox="0 0 12000 12000"><g fill="#666"><path d="M5625 9000c-629-113-1183-501-1516-1062-125-210-201-403-255-648-26-116-28-145-32-407-3-230-1-302 13-389 70-449 299-893 616-1199 186-179 356-301 569-409 162-82 290-130 471-175l145-36-279-230c-702-577-819-677-838-719-23-50-24-114-4-162 8-20 108-153 222-295 165-206 215-263 248-279 40-20 62-20 1020-20s980 0 1020 20c33 16 83 73 248 279 114 142 214 275 222 295 20 48 19 112-4 162-19 42-136 142-838 719l-279 230 145 36c395 98 727 284 1035 579 319 306 551 755 621 1204 14 87 16 159 13 389-4 262-6 291-32 407-84 381-243 692-510 999-299 342-737 599-1196 699-106 23-139 25-415 28-264 3-313 1-410-16zm665-206c577-81 1086-419 1405-935 473-762 352-1786-284-2408-168-164-352-294-555-392-684-330-1487-237-2086 242-169 135-296 269-399 422-439 651-461 1483-56 2136 428 692 1177 1046 1975 935zm59-4854c62-102 115-187 116-190 2-3-205-5-460-5h-464l19 30c10 17 66 109 125 205 60 96 156 254 214 351l106 176 115-191c64-105 167-274 229-376zm-723 358c-61-101-161-265-220-365l-108-183h-219c-120 0-219 2-219 4 0 3 95 82 211 178 117 95 314 257 438 361 124 103 226 187 228 187 1 0-49-82-111-182zm890-18c116-96 306-253 422-348 117-96 212-175 212-178 0-2-99-4-219-4h-219l-108 183c-59 100-159 265-221 366-63 101-106 178-96 170s113-93 229-189zm-1422-872c-41-68-78-124-82-126-4-1-54 54-110 123l-102 125h368l-74-122zm1596-35c51-87 100-166 108-175 14-17-24-18-793-18s-807 1-793 18c8 9 57 88 108 175l92 157h1186l92-157zm418 32c-56-69-106-124-110-123-4 2-41 58-82 126l-74 122h368l-102-125z"/><path d="M5836 8550c-211-24-413-83-589-172-351-175-640-466-797-802-355-757-130-1631 552-2137 153-113 422-230 643-279 523-115 1119 42 1508 397 272 249 453 558 533 913 113 498-12 1038-330 1430-330 407-792 639-1306 655-74 2-170 0-214-5zm476-239c294-64 535-197 758-421 221-220 343-444 412-757 18-82 22-131 22-293 1-216-9-281-69-467-145-441-489-799-909-942-207-71-292-85-521-85s-314 14-521 85c-411 140-749 486-902 920-62 175-77 273-77 489 1 162 5 212 23 297 65 299 194 536 412 753 257 258 517 387 895 444 17 2 109 3 205 1 129-3 201-9 272-24z"/></g></svg>