<svg version="1.0" xmlns="http://www.w3.org/2000/svg" width="1200" height="1200" viewBox="0 0 12000 12000"><path d="M5780 7959c-343-58-545-128-781-270l-96-58-63 20c-315 98-615-207-509-519l20-61-39-68c-106-181-201-421-233-585l-13-68-1090-2-1091-3-67-32c-89-42-163-112-199-188-25-52-29-72-29-150s4-98 29-150c36-76 110-146 199-188l67-32 1095-5 1094-5 16-70c40-174 131-396 228-555l40-66-24-69c-66-195 5-384 187-497 93-58 278-62 377-9 19 10 34 4 114-42 195-111 393-187 613-234 104-22 151-26 355-30 230-4 238-4 385 26 83 16 206 48 275 71 123 41 326 136 406 190 32 21 45 25 59 17 10-5 41-16 69-23 316-84 593 206 496 519l-20 66 45 71c93 145 197 392 235 557l12 53 1081 2 1082 3 67 32c93 43 161 110 204 198 32 68 34 78 34 174 0 91-3 108-29 166-52 114-166 205-292 234-28 7-422 11-1092 11-829 0-1048 3-1051 13-2 6-18 64-35 127-47 171-141 381-241 537-12 19-12 29 3 76 23 73 22 174-3 245-74 212-286 323-503 266l-62-17-57 36c-131 84-318 168-488 218-172 51-318 71-525 75-110 1-225-1-255-7zm142-513l-3-343-320-133-321-132-36 33c-20 19-69 65-108 103l-72 68 29 62c25 54 29 72 29 153 0 98-21 176-61 227l-20 25 40 26c151 95 398 189 589 224 147 28 150 28 207 30l50 1-3-344zm431 314c190-37 403-117 575-217l42-25-24-29c-44-52-66-130-66-232 0-81 4-99 29-153l29-61-98-98-99-98-53 20c-29 11-118 48-198 81s-199 82-265 110l-120 50-3 342-2 343 73-6c40-4 121-16 180-27zm-1555-282c41-12 94-57 124-106 31-50 32-160 1-217-73-138-251-168-361-62-140 134-73 360 118 397 37 8 63 5 118-12zm2593-14c164-82 160-328-7-410-132-65-286 6-325 149-33 122 43 250 168 282 58 15 103 10 164-21zm-1277-549c47-19 123-50 169-69 45-19 154-64 242-100 88-37 165-72 171-79 6-6 16-25 22-42 6-16 31-79 57-140 45-106 100-239 171-411l33-82-116-278c-63-154-126-306-139-338s-25-61-27-63-69-30-148-62c-264-109-434-179-481-200l-48-20-327 135c-179 74-334 139-344 145-10 5-21 19-24 31-6 20-90 223-159 388-13 30-43 101-66 157l-43 103 31 77c17 43 53 132 81 198 27 66 77 185 109 265l60 144 118 49c66 27 156 64 202 83 45 19 121 50 170 70 147 62 177 73 189 74 7 0 50-16 97-35zm1501-105c62-125 110-252 139-370 28-115 56-284 56-342v-38h-667l-43 103c-53 127-79 189-165 395l-68 163 97 98 98 98 51-26c47-24 63-26 168-26 114 0 117 1 185 36l69 36 19-21c10-12 37-59 61-106zm-3070 85c56-28 68-30 175-30 104 0 120 2 167 26l52 27 112-107 112-106-30-70c-17-39-77-184-134-322l-104-253h-342c-302 0-343 2-343 15 0 95 43 334 81 455 52 164 168 408 188 397 3-1 33-16 66-32zm5549-699c18-7 50-29 71-47 123-108 93-301-60-383l-40-21-1048-3-1048-3 8 28c4 16 8 121 8 236v207h1038c858 0 1043-2 1071-14zm-6059-133c-3-60-2-147 2-195l9-88H1919l-50 25c-143 73-146 254-6 335l52 30h2126l-6-107zm908-255c19-46 56-135 82-198s55-133 65-155c27-61 70-172 70-182 0-4-50-58-112-120l-111-112-51 27c-47 25-61 27-166 27-109 0-119-2-177-30l-60-30-18 30c-121 206-218 487-239 690-4 33-9 77-12 98l-6 37h700l35-82zm2863 25c-33-281-107-514-234-736-41-71-46-77-61-63-9 8-39 26-66 38-43 20-66 23-165 23-106 0-119-2-167-27l-52-28-99 106-99 106 44 107c49 117 117 282 169 409 19 46 39 92 45 103 9 18 26 19 351 19h340l-6-57zm-2360-754c82-34 187-77 234-96 47-20 110-46 140-58s66-28 80-34l25-12-3-339-3-340h-67c-106 0-325 50-501 115-44 16-177 81-257 126l-40 22 30 56c30 54 31 61 31 176 0 111-2 124-27 170l-27 50 112 113c61 61 114 112 117 112 4 0 74-27 156-61zm1393-55l100-106-27-52c-25-47-27-60-27-171 0-117 1-122 33-179 24-46 29-62 20-68-7-5-70-37-139-72-191-95-417-160-606-175l-93-6v681l93 38c117 49 201 84 302 126 44 18 109 46 145 61 36 16 72 29 82 29 9 0 61-48 117-106zm-1999-132c26-16 57-48 75-76 26-43 30-58 29-120 0-83-15-117-73-169-119-107-305-68-367 78-9 22-17 63-16 90 0 81 35 144 115 204 51 39 168 35 237-7zm2554 8c75-46 118-121 118-205 1-154-142-263-289-220-59 17-124 69-151 119-10 20-16 57-16 101-1 59 3 77 27 118 30 51 86 94 139 108 48 12 137 1 172-21z" fill="#676767"/></svg>